<svg xmlns="http://www.w3.org/2000/svg" width="682.667" height="682.667" version="1.0" viewBox="0 0 512 512"><path d="M132.8 86.5c-.2.1-3.9.5-8.3.9-14.7 1.3-23.8 3.4-30 7-4.5 2.7-11.3 9.6-16.7 17.1-2.9 4.1-20 33.1-32 54.5-7 12.3-42.2 73.9-44 76.8l-2 3.3 27.2-.3 27.2-.3 14-24.5c17.7-30.9 39.3-69 42.6-75 16.8-30.5 33.7-52.5 44.5-58l4.2-2.1-13.2.2c-7.3.1-13.4.3-13.5.4zM209.8 86.4c-.1.2-3.4.6-7.3 1-11.6 1-16.8 2.3-23.9 5.8-5 2.6-17.9 15.4-23.9 24-3.7 5.2-28.9 48.4-56.9 97.8-6.6 11.5-14.3 25-16 27.8l-2 3.3 26.8-.2c30.2-.3 27.4.5 32.7-9.1 3.1-5.7 4.4-7.9 13.2-23.3 3.1-5.5 7-12.3 8.5-15 1.5-2.8 6.9-12.1 11.9-20.9 5-8.7 9.1-15.9 9.1-16 0-.2 2-3.7 4.4-8l4.4-7.7 2.8 4.8c1.5 2.6 4 6.9 5.6 9.6 1.5 2.6 2.8 4.9 2.8 5.1 0 .2 1.8 3.4 4 7s4 6.8 4 7c0 .2 2.7 5 6 10.6s6 10.3 6 10.5c0 .2 1.4 2.8 3.1 5.7 1.8 2.9 4.1 6.9 5.2 8.8 1.1 1.9 5.1 9.1 9.1 16 3.9 6.9 7.5 13.4 8.1 14.5.9 1.7 2 1.9 12 1.7 6.1-.1 17.7-.2 25.8-.2h14.8l-2.7-4.7c-2.3-4.3-6.1-10.8-27.2-47.3-3-5.2-11.6-20.1-19-33-7.4-12.9-16.6-28.9-20.5-35.5-3.8-6.6-7.8-13.5-8.8-15.3l-1.8-3.2 6.7-5.6c3.7-3 8.1-6.3 9.9-7.4l3.2-1.9 6.3 11.1c3.5 6.1 7.4 12.9 8.7 15.2 1.3 2.3 3.2 5.6 4.3 7.4 4.1 7.3 17.2 29.9 18.9 32.7 1.1 1.6 2.2 3.7 2.6 4.5.4.8 5.9 10.5 12.3 21.5s12.8 22 14.2 24.5c2.2 3.9 7.2 12.6 10.3 17.8.6.9 3 5.2 5.3 9.5 2.4 4.2 5.1 8 6 8.5.9.4 4 .7 6.7.6 2.8-.1 13.9-.2 24.8-.3 11.7-.1 19.7-.5 19.7-1.1 0-.5-3.8-7.3-8.4-15.2-4.6-7.9-9.3-15.9-10.4-17.8-1.1-1.9-7.9-13.9-15.2-26.5-7.3-12.7-14.4-25.1-15.9-27.7-17.7-31.9-27.4-47.5-34.9-55.9-6-6.9-16.4-11.7-28.7-13.5-2.7-.3-6.1-.9-7.5-1.1-2.9-.5-48.6-1.3-49.2-.9zM213.1 266c-.5.3 2.7 6.6 7 14s8.5 14.6 9.2 16c.8 1.4 3.9 6.8 6.9 12 3 5.2 10.8 18.7 17.3 30s14.9 25.9 18.8 32.5c3.8 6.6 8.1 14 9.5 16.5 1.3 2.5 2.8 4.9 3.2 5.5 1.7 2.4 6 10.7 6 11.7 0 1.7-15.9 14.8-18 14.8-.4 0-3.3-4.2-6.3-9.3-5-8.4-41.2-71.1-46.1-79.9-1.2-2-6.2-10.7-11.2-19.5-5.1-8.7-12.8-22.1-17.3-29.8l-8-14H158c-16.7 0-26 .4-26 1 0 .5 1 2.6 2.2 4.5 1.1 1.9 3.1 5.3 4.3 7.5 1.2 2.2 5.4 9.4 9.2 16 11.4 19.6 41 71 48.5 84.5 12.8 22.8 22.2 34.6 30.9 38.8 4.6 2.2 14 4.9 19.9 5.6 12.6 1.6 19.2 2 32.5 2 32.7.1 46.8-2.1 56.5-8.7 9.3-6.4 21.9-21.2 29.4-34.7 2.1-3.6 4.1-7.2 4.6-8 .5-.8 4.1-7.1 8-14 3.9-6.9 7.4-13.2 7.9-14 .5-.8 9.2-15.9 19.3-33.5 10-17.6 18.8-32.7 19.3-33.7 6.1-10.1 7.3-12.8 5.7-12.9-1-.1-12.9-.1-26.7 0-18.1.1-25.3.5-26.1 1.4-.9 1-31.9 55.2-51.4 89.9-2.4 4.3-4.7 7.8-5 7.8-.4 0-1.4-1.5-2.3-3.3-1.8-3.6-6.5-11.9-10.6-18.7-1.4-2.5-3.2-5.6-3.9-7-.7-1.4-10.2-18-21-37l-19.8-34.5h-24.8c-13.6 0-25.1.2-25.5.5zM474.1 267l-16.4.5-1.7 3c-1 1.6-10.6 18.5-21.5 37.5s-24 42.1-29.2 51.5c-9.8 17.4-21.2 36.6-22.3 37.5-.3.3-2.2 2.7-4 5.5-4.7 6.8-15 17.5-19.9 20.5-2.2 1.4-4.1 2.8-4.1 3.1 0 .8 22.6.4 32-.5 11.9-1.2 23.4-3.7 28.5-6.2 8.3-4.2 19-16.8 28.3-33.4 1.6-3 17.6-31 35.5-62.3 17.9-31.2 32.2-56.7 31.9-56.8-2.5-.4-23.4-.3-37.1.1z"/></svg>